<svg xmlns="http://www.w3.org/2000/svg" viewBox="0 0 128 128">
  <defs>
    <linearGradient id="bg" x1="0" y1="0" x2="1" y2="1">
      <stop offset="0" stop-color="#f8fafc" />
      <stop offset="1" stop-color="#e2e8f0" />
    </linearGradient>
    <linearGradient id="heart" x1="0" y1="0" x2="1" y2="1">
      <stop offset="0" stop-color="#f43f5e" />
      <stop offset="1" stop-color="#fb7185" />
    </linearGradient>
    <linearGradient id="tree" x1="0" y1="0" x2="1" y2="1">
      <stop offset="0" stop-color="#22c55e" />
      <stop offset="1" stop-color="#15803d" />
    </linearGradient>
  </defs>
  <rect width="128" height="128" rx="28" fill="url(#bg)" />
  <path
    d="M64 78c-14-10.8-22-19.2-22-29.5C42 39.4 48 33 56.6 33c5.5 0 10.2 3 11.4 7.2 1.2-4.2 5.9-7.2 11.4-7.2 8.6 0 14.6 6.4 14.6 15.5 0 10.3-8 18.7-22 29.5z"
    fill="url(#heart)"
  />
  <path d="M60 82h8v18h-8z" fill="#8b5a2b" />
  <path
    d="M36 68c4-10.8 14.2-18.5 28-18.5S88 57.2 92 68c-3.8 8.2-12.8 13.8-22.8 13.8h-10.4C48.8 81.8 39.8 76.2 36 68z"
    fill="url(#tree)"
  />
  <circle cx="92" cy="36" r="10" fill="#fde68a" opacity="0.9" />
</svg>
